<svg xmlns="http://www.w3.org/2000/svg" width="24.5" height="32.667" viewBox="0 0 24.5 32.667">
  <path id="Path_7" data-name="Path 7" d="M22.458,12.25h0V30.523a2.1,2.1,0,0,1-2.042,2.144H4.083a2.1,2.1,0,0,1-2.042-2.144V12.25h0C.919,12.25,0,11.025,0,9.545V6.84C0,5.308.919,4.083,2.042,4.083H22.458c1.123,0,2.042,1.225,2.042,2.705V9.494C24.5,11.025,23.581,12.25,22.458,12.25ZM4.083,29.655a.981.981,0,0,0,1.021.97H19.4a1.015,1.015,0,0,0,1.021-.97v-7.2H18.375a6.125,6.125,0,0,1-12.25,0H4.083Zm12.25-7.2a4.083,4.083,0,1,0-4.083,4.083A4.1,4.1,0,0,0,16.333,22.458ZM4.083,20.417h2.4a6.115,6.115,0,0,1,11.535,0h2.4V12.25H4.083ZM21.438,6.125H3.063c-.561,0-1.021.919-1.021,2.042s.459,2.042,1.021,2.042H21.438c.561,0,1.021-.919,1.021-2.042S22,6.125,21.438,6.125ZM19.4,2.042H5.1A1.021,1.021,0,1,1,5.1,0H19.4a1.021,1.021,0,1,1,0,2.042Z" fill="#fff" fill-rule="evenodd"/>
</svg>
