<svg xmlns="http://www.w3.org/2000/svg" width="28" height="32" viewBox="0 0 28 32">
  <path id="Path_9" data-name="Path 9" d="M28,30a2.006,2.006,0,0,1-2,2H2a2.006,2.006,0,0,1-2-2V12a2.51,2.51,0,0,1,.1-.6.966.966,0,0,1,.05-.9L5,.5A.982.982,0,0,1,5.85.05.184.184,0,0,1,6,0H22a.184.184,0,0,1,.15.05A.926.926,0,0,1,23,.5l4.85,10a1.063,1.063,0,0,1,.05.95,2.149,2.149,0,0,1,.1.6ZM6.6,2,2.75,10h7.6L11.7,2ZM14,2l-2,8h4Zm2,10H12v8h4ZM21.4,2H16.35l1.35,8h7.55ZM26,13a1,1,0,0,0-1-1H18V22H10V12H3a1,1,0,0,0-1,1V29a1,1,0,0,0,1,1H25a1,1,0,0,0,1-1ZM10,26h2v2H10ZM4,26H8v2H4Z" fill="#fff" fill-rule="evenodd"/>
</svg>
