<svg xmlns="http://www.w3.org/2000/svg" width="34" height="36.267" viewBox="0 0 34 36.267">
  <path id="Path_8" data-name="Path 8" d="M34,13.6H31.733V36.267H2.267V13.6H0V6.8H9.69a4.387,4.387,0,0,1-.623-2.267A4.5,4.5,0,0,1,17,1.587a4.5,4.5,0,0,1,7.933,2.947A4.387,4.387,0,0,1,24.31,6.8H34ZM18.133,34H29.467V24.933H18.133Zm0-11.333H29.467V13.6H18.133ZM4.533,34H15.867V24.933H4.533Zm0-11.333H15.867V13.6H4.533ZM13.6,2.267a2.267,2.267,0,1,0,2.267,2.267A2.273,2.273,0,0,0,13.6,2.267Zm6.8,0a2.267,2.267,0,1,0,2.267,2.267A2.273,2.273,0,0,0,20.4,2.267Zm11.333,6.8H2.267v2.267H31.733Z" fill="#fff" fill-rule="evenodd"/>
</svg>
