<svg xmlns="http://www.w3.org/2000/svg" width="30" height="32" viewBox="0 0 30 32">
  <path id="Path_11" data-name="Path 11" d="M28,32H2a2.006,2.006,0,0,1-2-2V18L4,4H8V6H5.45L2,18H15a1.46,1.46,0,0,1-.45-.1,1.192,1.192,0,0,1-.55-.3L8.35,11.9a1.131,1.131,0,0,1,1.6-1.6l4,4.05V1A1.015,1.015,0,0,1,15,0a1.047,1.047,0,0,1,1.05,1V14.25L20,10.3a1.131,1.131,0,1,1,1.6,1.6l-5.7,5.7a1.022,1.022,0,0,1-.45.25.845.845,0,0,1-.5.15h13L24.5,6H22V4h4l4,14V30A2.006,2.006,0,0,1,28,32ZM20,18H10v4H20Zm8,3a1,1,0,0,0-1-1H22v4H8V20H3a1,1,0,0,0-1,1v8a1,1,0,0,0,1,1H27a1,1,0,0,0,1-1Z" fill="#fff" fill-rule="evenodd"/>
</svg>
