<svg xmlns="http://www.w3.org/2000/svg" width="32" height="32" viewBox="0 0 32 32">
  <path id="Path_10" data-name="Path 10" d="M32,16a3.945,3.945,0,0,1-3.7,3.95,11.37,11.37,0,0,1-.8,1.95,3.935,3.935,0,0,1-5.55,5.55,10.693,10.693,0,0,1-1.95.8A4.031,4.031,0,0,1,16,32a3.945,3.945,0,0,1-3.95-3.7,11.37,11.37,0,0,1-1.95-.8,3.935,3.935,0,0,1-5.55-5.55A10.692,10.692,0,0,1,3.75,20,4.031,4.031,0,0,1,0,16a3.945,3.945,0,0,1,3.7-3.95,11.37,11.37,0,0,1,.8-1.95,4,4,0,0,1,.2-5.4,3.937,3.937,0,0,1,5.35-.2A10.692,10.692,0,0,1,12,3.7,4.026,4.026,0,0,1,16,0a3.945,3.945,0,0,1,3.95,3.7,11.37,11.37,0,0,1,1.95.8,3.935,3.935,0,0,1,5.55,5.55,10.693,10.693,0,0,1,.8,1.95A4.031,4.031,0,0,1,32,16Zm-5.2-2a11.191,11.191,0,0,0-1.75-4.2l.85-.85A2.015,2.015,0,0,0,23.05,6.1l-.85.85A10.436,10.436,0,0,0,18,5.2V4a2,2,0,0,0-4,0V5.2A11.191,11.191,0,0,0,9.8,6.95L8.95,6.1A2.015,2.015,0,0,0,6.1,8.95l.85.85A10.436,10.436,0,0,0,5.2,14H4a2,2,0,0,0,0,4H5.2a11.191,11.191,0,0,0,1.75,4.2l-.85.85A2.015,2.015,0,0,0,8.95,25.9l.85-.85A10.436,10.436,0,0,0,14,26.8V28a2,2,0,0,0,4,0V26.8a11.191,11.191,0,0,0,4.2-1.75l.85.85a2.015,2.015,0,0,0,2.85-2.85l-.85-.85A10.436,10.436,0,0,0,26.8,18H28a2,2,0,0,0,0-4ZM16,22a6,6,0,1,1,6-6A6.018,6.018,0,0,1,16,22Zm0-10a4,4,0,1,0,4,4A4.012,4.012,0,0,0,16,12Z" fill="#fff" fill-rule="evenodd"/>
</svg>
